<?xml version="1.0" encoding="UTF-8"?>
<svg width="32" height="32" viewBox="0 0 32 32" fill="none" xmlns="http://www.w3.org/2000/svg">
  <!-- Background circle -->
  <circle cx="16" cy="16" r="16" fill="#3B82F6"/>
  
  <!-- Quotation mark -->
  <path d="M14 12H10V16C10 18.2091 11.7909 20 14 20H14.5C15.3284 20 16 19.3284 16 18.5V18C16 17.1716 15.3284 16.5 14.5 16.5H14C13.1716 16.5 12.5 15.8284 12.5 15V12H14C14.8284 12 15.5 12.6716 15.5 13.5V14C15.5 14.8284 14.8284 15.5 14 15.5" stroke="white" stroke-width="2" stroke-linecap="round" stroke-linejoin="round"/>
  
  <path d="M22 12H18V16C18 18.2091 19.7909 20 22 20H22.5C23.3284 20 24 19.3284 24 18.5V18C24 17.1716 23.3284 16.5 22.5 16.5H22C21.1716 16.5 20.5 15.8284 20.5 15V12H22C22.8284 12 23.5 12.6716 23.5 13.5V14C23.5 14.8284 22.8284 15.5 22 15.5" stroke="white" stroke-width="2" stroke-linecap="round" stroke-linejoin="round"/>
</svg>